<svg xmlns="http://www.w3.org/2000/svg" xmlns:xlink="http://www.w3.org/1999/xlink" width="29.153" height="27.844" viewBox="0 0 29.153 27.844"><defs><style>.a{fill:url(#a);}.b{fill:url(#b);}.c{fill:url(#c);}.d{fill:url(#d);}.e{fill:url(#e);}.f{fill:url(#f);}.g{fill:url(#g);}</style><linearGradient id="a" x1="0.463" y1="0.914" x2="0.463" y2="-0.169" gradientUnits="objectBoundingBox"><stop offset="0" stop-color="#ffcf95"/><stop offset="0.427" stop-color="#ffc954"/><stop offset="1" stop-color="#ffc200"/></linearGradient><linearGradient id="b" x1="1.217" y1="1.457" x2="-0.633" y2="1.457" gradientUnits="objectBoundingBox"><stop offset="0" stop-color="#ffc200" stop-opacity="0"/><stop offset="0.203" stop-color="#fb0" stop-opacity="0.204"/><stop offset="0.499" stop-color="#ffa700" stop-opacity="0.498"/><stop offset="0.852" stop-color="#f80" stop-opacity="0.851"/><stop offset="1" stop-color="#ff7800"/></linearGradient><linearGradient id="c" x1="0.518" y1="-0.407" x2="0.353" y2="1.223" xlink:href="#b"/><linearGradient id="d" x1="-0.462" y1="-1.03" x2="0.591" y2="-0.306" xlink:href="#b"/><linearGradient id="e" x1="-0.151" y1="-0.116" x2="0.585" y2="-0.571" xlink:href="#b"/><linearGradient id="f" x1="0.61" y1="2.287" x2="0.415" y2="1.017" xlink:href="#b"/><linearGradient id="g" x1="1.34" y1="1.58" x2="-0.083" y2="0.368" xlink:href="#b"/></defs><path class="a" d="M15.649,12.168l3.856,7.813,8.622,1.253a1.2,1.2,0,0,1,.663,2.04l-6.239,6.082,1.473,8.588A1.2,1.2,0,0,1,22.289,39.2L14.576,35.15,6.864,39.2a1.2,1.2,0,0,1-1.736-1.261L6.6,29.356.362,23.274a1.2,1.2,0,0,1,.663-2.04l8.622-1.253L13.5,12.168A1.2,1.2,0,0,1,15.649,12.168Z" transform="translate(0 -11.501)"/><path class="b" d="M260.93,19.981l-3.856-7.813A1.182,1.182,0,0,0,256,11.5V26.293Z" transform="translate(-241.424 -11.501)"/><path class="c" d="M263.975,204.312l6.239-6.082a1.181,1.181,0,0,0,.307-1.21L256,201.249Z" transform="translate(-241.423 -186.457)"/><path class="d" d="M264.975,284.106,256,271.289v8.857l7.712,4.054A1.182,1.182,0,0,0,264.975,284.106Z" transform="translate(-241.423 -256.497)"/><path class="e" d="M99.223,271.289l-7.975,3.063-1.473,8.587a1.182,1.182,0,0,0,.472,1.167Z" transform="translate(-84.646 -256.497)"/><path class="f" d="M.968,162.513l14.521,4.229-4.929-6.312-8.622,1.253a1.182,1.182,0,0,0-.97.831Z" transform="translate(-0.913 -151.949)"/><path class="g" d="M6.607,204.312.368,198.231a1.181,1.181,0,0,1-.307-1.21l14.521,4.229Z" transform="translate(-0.005 -186.457)"/></svg>