<svg xmlns="http://www.w3.org/2000/svg" width="220" height="220" viewBox="0 0 220 220"><defs><style>.a{fill:#f9f9f9;}.b{fill:#2633ec;}</style></defs><g transform="translate(-850 -425)"><circle class="a" cx="110" cy="110" r="110" transform="translate(850 425)"/><g transform="translate(906.885 486.12)"><path d="M63.3,43.076v-21.3a5.97,5.97,0,0,0-5.963-5.963,5.9,5.9,0,0,0-2.861.763,5.876,5.876,0,0,0-8.519-3.408,5.924,5.924,0,0,0-11.317,0,5.9,5.9,0,0,0-2.861-.763,5.97,5.97,0,0,0-5.963,5.963V21.1A8.534,8.534,0,0,0,19,29.446V43.076a15.264,15.264,0,0,0,8.519,13.74v8.41h-1.7a1.7,1.7,0,0,0-1.7,1.7V99.3a1.7,1.7,0,0,0,1.7,1.7H56.484a1.7,1.7,0,0,0,1.7-1.7V66.93a1.7,1.7,0,0,0-1.7-1.7h-1.7V56.818A15.268,15.268,0,0,0,63.3,43.076ZM57.336,19.223a2.559,2.559,0,0,1,2.556,2.556V33.705a2.556,2.556,0,0,1-5.111,0V21.779A2.559,2.559,0,0,1,57.336,19.223Zm-8.519-3.408a2.559,2.559,0,0,1,2.556,2.556V33.705a2.556,2.556,0,1,1-5.111,0V18.371A2.559,2.559,0,0,1,48.817,15.815Zm-11.075-.852a2.556,2.556,0,0,1,5.111,0V33.705a2.556,2.556,0,0,1-5.111,0v-1.45a5.928,5.928,0,0,0,0-10.731V14.963ZM34.334,33.705a2.559,2.559,0,0,1-2.556,2.556,2.521,2.521,0,0,1-.852-.153V32.853h3.408Zm-2.556-17.89a2.559,2.559,0,0,1,2.556,2.556v2.556H29.223V18.371A2.559,2.559,0,0,1,31.779,15.815Zm23,52.818v3.408H27.519V68.634ZM27.519,97.6V75.449H54.78V97.6Zm3.408-32.373V55.715a1.7,1.7,0,0,0-1.065-1.579,11.882,11.882,0,0,1-7.454-11.059V29.446a5.118,5.118,0,0,1,5.111-5.111h7.667a2.556,2.556,0,0,1,0,5.111H29.223a1.7,1.7,0,0,0-1.7,1.7V41.373a1.7,1.7,0,0,0,1.7,1.7A8.529,8.529,0,0,1,37.742,51.6H41.15A11.945,11.945,0,0,0,30.927,39.79V39.6a6.154,6.154,0,0,0,.852.068,5.938,5.938,0,0,0,4.26-1.8,5.934,5.934,0,0,0,8.519,0,5.934,5.934,0,0,0,8.519,0,5.872,5.872,0,0,0,6.815,1.2v4.006a11.881,11.881,0,0,1-7.454,11.059,1.7,1.7,0,0,0-1.065,1.579v9.511Z" transform="translate(11.965 5.336)"/><path d="M16.445,46.552h3.408A49.982,49.982,0,0,0,6.931,12.585L5.773,11.324l-2.51,2.305L4.42,14.89A47.216,47.216,0,0,1,16.445,46.552Z" transform="translate(0.889 6.971)"/><path d="M66.431,14.89l1.159-1.261-2.51-2.305-1.16,1.261A49.988,49.988,0,0,0,51,46.552h3.408A47.223,47.223,0,0,1,66.431,14.89Z" transform="translate(34.487 6.971)"/><path class="b" d="M18.408,32.017A39.928,39.928,0,0,1,28.2,5.608L25.657,3.333A42.8,42.8,0,0,0,15,32.017v1.418h3.408Z" transform="translate(9.15 1.347)"/><path d="M51.043,33.434h3.408V32.017A42.8,42.8,0,0,0,43.794,3.333L41.255,5.608a39.928,39.928,0,0,1,9.788,26.409Z" transform="translate(27.628 1.347)"/><path d="M14.387,29.67H17.8v-.676A47.167,47.167,0,0,0,8.957,1.419L6.187,3.4a43.805,43.805,0,0,1,8.2,25.595Z" transform="translate(2.947 0)"/><path class="b" d="M54.408,28.993A43.8,43.8,0,0,1,62.608,3.4L59.836,1.42A47.164,47.164,0,0,0,51,28.993v.676h3.408Z" transform="translate(34.487 0.001)"/><path d="M4,23H7.408v3.408H4Z" transform="translate(1.408 15.189)"/><path d="M6,25H9.408v3.408H6Z" transform="translate(2.815 16.597)"/><path d="M4,27H7.408v3.408H4Z" transform="translate(1.408 18.004)"/><path d="M2,25H5.408v3.408H2Z" transform="translate(0 16.597)"/><path d="M58,23h3.408v3.408H58Z" transform="translate(39.414 15.189)"/><path d="M60,25h3.408v3.408H60Z" transform="translate(40.821 16.597)"/><path d="M58,27h3.408v3.408H58Z" transform="translate(39.414 18.004)"/><path d="M56,25h3.408v3.408H56Z" transform="translate(38.006 16.597)"/><path class="b" d="M47,33h3.408v3.408H47Z" transform="translate(31.672 22.227)"/><path class="b" d="M49,35h3.408v3.408H49Z" transform="translate(33.079 23.635)"/><path class="b" d="M47,37h3.408v3.408H47Z" transform="translate(31.672 25.042)"/><path class="b" d="M45,35h3.408v3.408H45Z" transform="translate(30.264 23.635)"/><path class="b" d="M15,33h3.408v3.408H15Z" transform="translate(9.15 22.227)"/><path class="b" d="M17,35h3.408v3.408H17Z" transform="translate(10.557 23.635)"/><path class="b" d="M15,37h3.408v3.408H15Z" transform="translate(9.15 25.042)"/><path class="b" d="M13,35h3.408v3.408H13Z" transform="translate(7.742 23.635)"/><path class="b" d="M35,4h3.408V7.408H35Z" transform="translate(23.226 1.817)"/><path class="b" d="M24,6h3.408V9.408H24Z" transform="translate(15.484 3.224)"/><path class="b" d="M13.522,41.084A22.123,22.123,0,0,0,7,56.832h3.408a18.732,18.732,0,0,1,5.524-13.337l.792-.791-2.409-2.411Z" transform="translate(3.519 27.36)"/><path class="b" d="M53.7,40.292,51.293,42.7l.792.791a18.739,18.739,0,0,1,5.524,13.339h3.408a22.123,22.123,0,0,0-6.522-15.748Z" transform="translate(34.693 27.359)"/></g></g></svg>