<svg xmlns="http://www.w3.org/2000/svg" width="104" height="104" viewBox="0 0 104 104"><defs><style>.a{fill:#e7e7fc;}.b{fill:#2633ec;}</style></defs><g transform="translate(-217 -861)"><circle class="a" cx="52" cy="52" r="52" transform="translate(217 861)"/><g transform="translate(234.717 889)"><g transform="translate(11.328 24.076)"><g transform="translate(0)"><path d="M34.282,257.323a22.981,22.981,0,0,0-22.954,22.954,1,1,0,0,0,2,0,20.958,20.958,0,1,1,41.917,0,1,1,0,0,0,2,0A22.98,22.98,0,0,0,34.282,257.323Z" transform="translate(-11.328 -257.323)"/></g></g><g transform="translate(23.304)"><path class="b" d="M150.306,0a10.978,10.978,0,1,0,10.978,10.978A10.991,10.991,0,0,0,150.306,0Zm0,19.96a8.982,8.982,0,1,1,8.982-8.982A8.993,8.993,0,0,1,150.306,19.96Z" transform="translate(-139.328)"/></g></g></g></svg>