<svg xmlns="http://www.w3.org/2000/svg" xmlns:xlink="http://www.w3.org/1999/xlink" width="24" height="24" viewBox="0 0 24 24"><defs><style>.a{fill:#f44336;}.b{fill:#2196f3;}.c{fill:#ffc107;}.d{fill:#00b060;}.e{opacity:0.1;}.f{fill:#e6e6e6;}.g{fill:#fff;opacity:0.2;}.h{fill:url(#a);}</style><linearGradient id="a" y1="0.5" x2="1" y2="0.5" gradientUnits="objectBoundingBox"><stop offset="0" stop-color="#fff" stop-opacity="0.2"/><stop offset="1" stop-color="#fff" stop-opacity="0"/></linearGradient></defs><path class="a" d="M12,5a6.962,6.962,0,0,1,4.286,1.474L19.923,3A11.977,11.977,0,0,0,1.386,6.41L5.43,9.6A7,7,0,0,1,12,5Z"/><path class="b" d="M23.9,13.5A11.9,11.9,0,0,0,24,12a12.035,12.035,0,0,0-.265-2.5H12v5h6.486a7.072,7.072,0,0,1-2.648,3.319l4.059,3.2A11.987,11.987,0,0,0,23.9,13.5Z"/><path class="c" d="M5,12a6.971,6.971,0,0,1,.43-2.4L1.386,6.41a11.958,11.958,0,0,0-.028,11.123l4.05-3.2A6.972,6.972,0,0,1,5,12Z"/><path class="d" d="M12,19a7,7,0,0,1-6.592-4.664l-4.05,3.2A11.981,11.981,0,0,0,19.9,21.024l-4.059-3.2A6.831,6.831,0,0,1,12,19Z"/><path class="e" d="M12,23.75a12.416,12.416,0,0,1-8.952-3.779,11.959,11.959,0,0,0,17.841.069A12.406,12.406,0,0,1,12,23.75Z"/><path class="e" d="M12,14.25v.25h6.486l.1-.25Z"/><path class="f" d="M23.994,12.147c0-.049.006-.1.006-.147,0-.014,0-.027,0-.041C24,12.021,23.994,12.084,23.994,12.147Z"/><path class="g" d="M12,9.5v.25H23.786c-.016-.083-.033-.168-.05-.25Z"/><path class="h" d="M23.735,9.5H12v5h6.486a6.991,6.991,0,1,1-2.7-8.359c.168.109.34.211.5.333L19.923,3l-.082-.063A11.95,11.95,0,1,0,23.735,9.5Z"/><path class="e" d="M15.788,5.891A6.968,6.968,0,0,0,5,11.75c0,.042,0,.075,0,.117A6.968,6.968,0,0,1,15.789,6.141c.168.109.34.211.5.333L19.923,3l-3.637,3.22C16.129,6.1,15.956,6,15.788,5.891Z"/><path class="g" d="M12,.25a11.924,11.924,0,0,1,7.779,2.892L19.923,3l-.11-.1A11.829,11.829,0,0,0,12,0,12,12,0,0,0,0,12c0,.042.006.083.006.125A12,12,0,0,1,12,.25Z"/></svg>