<svg xmlns="http://www.w3.org/2000/svg" width="131.047" height="33.771" viewBox="0 0 131.047 33.771"><defs><style>.a{fill:#2633ec;}</style></defs><g transform="translate(-200 -496.918)"><path d="M475.576,513.572a13.937,13.937,0,0,1-5.144.008c-.283-.053-.563-.114-.839-.19a7.3,7.3,0,0,1-5.581-7.084,13.364,13.364,0,0,1,.329-3.708,7.024,7.024,0,0,1,5.465-5.276,12.639,12.639,0,0,1,5.829-.121c4.3.9,6.679,4.186,6.371,8.706-.271,3.986-2.117,6.5-5.6,7.473C476.136,513.456,475.858,513.518,475.576,513.572Zm1.74-7.108a10.811,10.811,0,0,0,.042-1.8c-.005-.09-.011-.173-.017-.243-.18-2.186-1.107-3.482-2.87-3.866a7.319,7.319,0,0,0-2.184-.137,3.428,3.428,0,0,0-3.51,3.214,14.858,14.858,0,0,0,.1,4,2.934,2.934,0,0,0,2.444,2.54,8.647,8.647,0,0,0,2.9.094,3.307,3.307,0,0,0,2.977-2.994C477.254,507,477.288,506.734,477.317,506.464Z" transform="translate(-220.754 0)"/><path d="M522.016,507.213l-6.717-7.934h.924c1.078,0,2.159.043,3.234-.016a1.634,1.634,0,0,1,1.485.707c1.157,1.417,2.361,2.8,3.6,4.255,1.123-1.322,2.249-2.547,3.254-3.865a2.418,2.418,0,0,1,2.341-1.1c1.137.1,2.29.022,3.644.022l-6.714,7.937L534,515.389c-1.713,0-3.247.021-4.779-.022-.232-.007-.5-.272-.676-.479-1.326-1.537-2.633-3.09-4.012-4.716-.768.745-1.515,1.438-2.228,2.166a76.052,76.052,0,0,1-14.491,11.921,55.214,55.214,0,0,1-20.307,7.31,84.99,84.99,0,0,1-15.448,1.043,54.686,54.686,0,0,1-28.389-8.315c-.856-.537-1.158-1.173-.826-1.786.323-.6,1.062-.76,1.948-.39a89.776,89.776,0,0,0,17.223,5.292,70.741,70.741,0,0,0,21.72.818,53.351,53.351,0,0,0,35.3-17.782C520.02,509.395,520.991,508.327,522.016,507.213Z" transform="translate(-202.955 -1.945)"/><path d="M604.4,504.124v11.339h-3.789V499.4h1.228c1.3,0,2.6.019,3.9-.01a.844.844,0,0,1,.944.58c1.27,2.943,2.583,5.866,3.86,8.806a9.608,9.608,0,0,1,.385,1.318c1.13-2.6,2.3-5.283,3.47-7.968.333-.762.657-1.529,1.022-2.276.09-.185.319-.426.488-.429,1.809-.031,3.619-.019,5.482-.019v16.071H617.4V504.19c-.795,1.875-1.524,3.645-2.3,5.4-.65,1.478-1.36,2.93-2.016,4.405a.752.752,0,0,1-.816.545c-.856-.035-1.716-.031-2.573,0a.723.723,0,0,1-.771-.5c-1.133-2.388-2.315-4.752-3.421-7.151a29.169,29.169,0,0,1-.966-2.761Z" transform="translate(-334.987 -2.069)"/><path d="M211.576,513.572a13.937,13.937,0,0,1-5.144.008c-.283-.053-.563-.114-.839-.19a7.3,7.3,0,0,1-5.581-7.084,13.365,13.365,0,0,1,.329-3.708,7.024,7.024,0,0,1,5.465-5.276,12.639,12.639,0,0,1,5.829-.121c4.3.9,6.679,4.186,6.371,8.706-.271,3.986-2.117,6.5-5.6,7.473C212.136,513.456,211.858,513.518,211.576,513.572Zm1.74-7.108a10.811,10.811,0,0,0,.042-1.8c-.005-.09-.011-.173-.017-.243-.18-2.186-1.107-3.482-2.87-3.866a7.319,7.319,0,0,0-2.184-.137,3.428,3.428,0,0,0-3.51,3.214,14.859,14.859,0,0,0,.1,4,2.934,2.934,0,0,0,2.444,2.54,8.647,8.647,0,0,0,2.9.094,3.307,3.307,0,0,0,2.977-2.994C213.254,507,213.288,506.734,213.317,506.464Z" transform="translate(0 0)"/><path d="M768.769,515.493c-1.428,0-2.775.017-4.12-.018a.82.82,0,0,1-.584-.387,18.518,18.518,0,0,1-.891-2.011.723.723,0,0,0-.82-.519q-3.2.03-6.4,0a.771.771,0,0,0-.878.556,20.2,20.2,0,0,1-.844,1.953.762.762,0,0,1-.5.409c-1.387.033-2.776.019-4.265.019.206-.469.366-.845.535-1.217,2.161-4.742,4.331-9.479,6.473-14.229a.946.946,0,0,1,1.035-.676c1.15.044,2.3-.012,3.454.034a.956.956,0,0,1,.707.43q3.526,7.627,7,15.279A2.663,2.663,0,0,1,768.769,515.493Zm-9.632-11.919-2.208,5.529h4.416Z" transform="translate(-459.464 -2.048)"/><path d="M331.117,499.751h18.244v3.38h-6.707v12.632h-4.628v-12.6h-6.909Z" transform="translate(-109.639 -2.369)"/><path class="a" d="M405.5,602.544A19.95,19.95,0,0,1,412.454,604a9.394,9.394,0,0,1,1.792.991c.31.228.7.719.64,1-.124.574-.711.3-1.126.275-2.49-.125-4.98-.362-7.469-.35-2.391.012-3.019.733-2.506,3.055.509,2.3,1.374,4.526,2.09,6.781.118.372.3.724.406,1.1.145.537-.158.83-.674.638a2.3,2.3,0,0,1-.716-.492,17.458,17.458,0,0,1-5-11.785c-.042-1.419.231-1.786,1.629-2.08C402.828,602.858,404.17,602.735,405.5,602.544Z" transform="translate(-167.143 -88.323)"/></g></svg>