<svg xmlns="http://www.w3.org/2000/svg" width="170" height="170" viewBox="0 0 170 170"><defs><style>.a{fill:#f9f9f9;}.b{fill:#2633ec;}</style></defs><g transform="translate(-629 -498)"><circle class="a" cx="85" cy="85" r="85" transform="translate(629 498)"/><g transform="translate(683 543)"><path d="M144.058,428.871a10.739,10.739,0,0,1-10.726-10.726,2.145,2.145,0,1,1,4.29,0,6.436,6.436,0,0,0,12.871,0,2.145,2.145,0,1,1,4.29,0A10.739,10.739,0,0,1,144.058,428.871Zm0,0" transform="translate(-115.455 -360.225)"/><path d="M52.2,115.485H5.005a5.007,5.007,0,0,1-3.255-8.81,1.976,1.976,0,0,1,.229-.172A19.223,19.223,0,0,0,8.581,92v-7.98A20.046,20.046,0,0,1,28.6,64a8.616,8.616,0,0,1,1.41.086,2.144,2.144,0,1,1-.7,4.23,4.5,4.5,0,0,0-.707-.026A15.75,15.75,0,0,0,12.871,84.022V92a23.525,23.525,0,0,1-8.3,17.937c-.043.035-.08.066-.126.1a.708.708,0,0,0-.151.444.723.723,0,0,0,.715.715H52.2a.723.723,0,0,0,.715-.715.683.683,0,0,0-.155-.444c-.043-.031-.08-.063-.123-.1A23.519,23.519,0,0,1,44.334,92V88.885a2.145,2.145,0,0,1,4.29,0V92a19.23,19.23,0,0,0,6.61,14.511,2.084,2.084,0,0,1,.22.166,5,5,0,0,1-3.255,8.807Zm0,0" transform="translate(0 -55.419)"/><path class="b" d="M270.3,28.6a14.3,14.3,0,1,1,14.3-14.3A14.317,14.317,0,0,1,270.3,28.6Zm0-24.312A10.011,10.011,0,1,0,280.312,14.3,10.022,10.022,0,0,0,270.3,4.29Zm0,0" transform="translate(-221.677)"/></g></g></svg>