<svg xmlns="http://www.w3.org/2000/svg" width="63.176" height="63.18" viewBox="0 0 63.176 63.18"><defs>
	<style>
		.a{fill:#1c1c1c;}
	</style>
</defs><path class="a" d="M61.979,27.48l0,0L36.2,1.7a5.816,5.816,0,0,0-8.226,0L2.215,27.462l-.026.027a5.814,5.814,0,0,0,3.87,9.91c.06.006.12.009.18.009H7.266V56.372a6.815,6.815,0,0,0,6.808,6.807H24.157a1.851,1.851,0,0,0,1.851-1.851V46.459a3.109,3.109,0,0,1,3.106-3.106h5.947a3.109,3.109,0,0,1,3.106,3.106v14.87a1.851,1.851,0,0,0,1.851,1.851H50.1a6.815,6.815,0,0,0,6.808-6.807V37.407h.953a5.817,5.817,0,0,0,4.117-9.927Zm-2.621,5.605a2.1,2.1,0,0,1-1.5.62h-2.8a1.851,1.851,0,0,0-1.851,1.851V56.372A3.109,3.109,0,0,1,50.1,59.478H41.869V46.459a6.815,6.815,0,0,0-6.808-6.808H29.114a6.816,6.816,0,0,0-6.808,6.808V59.478H14.074a3.109,3.109,0,0,1-3.106-3.105V35.556A1.851,1.851,0,0,0,9.117,33.7H6.361l-.087,0a2.112,2.112,0,0,1-1.456-3.607h0L30.593,4.321a2.113,2.113,0,0,1,2.99,0L59.349,30.086l.012.012a2.119,2.119,0,0,1,0,2.987Zm0,0" transform="translate(-0.5 0.001)"/></svg>