<svg xmlns="http://www.w3.org/2000/svg" width="72.221" height="72.227" viewBox="0 0 72.221 72.227"><defs><style>.a{fill:;}</style></defs><path class="a" d="M70.28,31.415l0,0L40.812,1.948a6.648,6.648,0,0,0-9.4,0L1.961,31.394l-.03.03A6.646,6.646,0,0,0,6.356,42.753q.1.01.2.01H7.735V64.445a7.791,7.791,0,0,0,7.783,7.781H27.044a2.116,2.116,0,0,0,2.116-2.116v-17a3.554,3.554,0,0,1,3.55-3.55h6.8a3.554,3.554,0,0,1,3.55,3.55v17a2.116,2.116,0,0,0,2.116,2.116H56.7a7.791,7.791,0,0,0,7.783-7.781V42.763h1.089A6.65,6.65,0,0,0,70.28,31.415Zm0,0" transform="translate(0 0.001)"/></svg>