<svg xmlns="http://www.w3.org/2000/svg" width="55.125" height="72.367" viewBox="0 0 55.125 72.367"><path d="M115.181,50.391l-3.3-2.2V29.116a23.353,23.353,0,0,0-21.2-23.224V2.12a2.12,2.12,0,0,0-4.24,0V5.892a23.353,23.353,0,0,0-21.2,23.224V48.194l-3.3,2.2A2.119,2.119,0,0,0,61,52.155v8.481a2.12,2.12,0,0,0,2.12,2.12H77.1a11.646,11.646,0,0,0,22.933,0H114a2.12,2.12,0,0,0,2.12-2.12V52.155A2.12,2.12,0,0,0,115.181,50.391ZM88.562,68.127a7.444,7.444,0,0,1-7.118-5.371H95.681A7.445,7.445,0,0,1,88.562,68.127Zm23.322-9.611H65.24V53.29l3.3-2.2a2.12,2.12,0,0,0,.944-1.764V29.116a19.082,19.082,0,0,1,38.163,0V49.328a2.12,2.12,0,0,0,.944,1.764l3.3,2.2Z" transform="translate(-61)"/></svg>