<svg xmlns="http://www.w3.org/2000/svg" width="60.723" height="61.528" viewBox="0 0 60.723 61.528"><defs><style>.a{fill:#2633ec;}</style></defs><g transform="translate(-3.344)"><g transform="translate(3.343)"><path d="M60.409,19.615,54.785,9.888a2.715,2.715,0,0,0-3.323-1.2l-6.355,2.553a22.139,22.139,0,0,0-3.789-2.2l-.967-6.737A2.659,2.659,0,0,0,37.7,0H26.418a2.656,2.656,0,0,0-2.651,2.284L22.8,9.047a22.957,22.957,0,0,0-3.781,2.2L12.643,8.688a2.672,2.672,0,0,0-3.3,1.174L3.711,19.607a2.693,2.693,0,0,0,.654,3.469l5.384,4.209a21.714,21.714,0,0,0-.123,2.2,20.962,20.962,0,0,0,.126,2.194L4.36,35.891A2.717,2.717,0,0,0,3.7,39.35l5.625,9.729a2.715,2.715,0,0,0,3.325,1.195l6.355-2.553a22.139,22.139,0,0,0,3.789,2.2l.967,6.74a2.663,2.663,0,0,0,2.653,2.3h8.834A1.275,1.275,0,0,0,36.3,56.957,16.6,16.6,0,0,1,34,42.687a1.281,1.281,0,0,0-.223-1.159,1.31,1.31,0,0,0-1.074-.487c-.138.008-.274.026-.623.069A11.563,11.563,0,1,1,43.615,29.759c-.018.136-.036.272-.044.41a1.284,1.284,0,0,0,1.646,1.3,16.052,16.052,0,0,1,7.737-.415,1.367,1.367,0,0,0,1-.305,1.439,1.439,0,0,0,.513-.961c.005-.046.018-.254.018-.3a21.467,21.467,0,0,0-.123-2.2l5.389-4.215A2.713,2.713,0,0,0,60.409,19.615Zm-8.183,6.094a1.284,1.284,0,0,0-.482,1.169c.054.431.11.913.146,1.425a18.576,18.576,0,0,0-5.712.279A14.127,14.127,0,1,0,31.127,43.636,19.143,19.143,0,0,0,32.96,56.38l-6.653-.062-1.072-7.473a1.286,1.286,0,0,0-.784-1,19.415,19.415,0,0,1-4.471-2.594,1.279,1.279,0,0,0-1.259-.174L11.566,47.82,5.944,37.909l5.95-4.653a1.284,1.284,0,0,0,.482-1.169,20.752,20.752,0,0,1-.187-2.6,20.775,20.775,0,0,1,.187-2.6,1.284,1.284,0,0,0-.482-1.169L5.926,20.9,11.7,11.072l7.022,2.82a1.283,1.283,0,0,0,1.248-.164,20.169,20.169,0,0,1,4.481-2.6,1.285,1.285,0,0,0,.784-1l1.184-7.558,11.39.085,1.072,7.473a1.286,1.286,0,0,0,.784,1,19.372,19.372,0,0,1,4.471,2.594,1.278,1.278,0,0,0,1.259.172l7.155-2.746,5.627,9.908Z" transform="translate(-3.343)"/></g><g transform="translate(35.867 33.328)"><path class="a" d="M300.869,287.277c-.961-3.845-5.279-9.944-12.78-9.944a14.1,14.1,0,0,0,0,28.2,1.282,1.282,0,1,0,0-2.564,11.536,11.536,0,1,1,0-23.073c6.268,0,9.642,5.391,10.293,8a1.281,1.281,0,0,0,2.487-.62Z" transform="translate(-273.989 -277.333)"/></g><g transform="translate(53.813 35.891)"><path class="a" d="M432.295,298.667a1.282,1.282,0,0,0-1.282,1.282v6.409H424.6a1.282,1.282,0,0,0,0,2.564h7.691a1.281,1.281,0,0,0,1.282-1.282v-7.691A1.282,1.282,0,0,0,432.295,298.667Z" transform="translate(-423.322 -298.667)"/></g></g></svg>