<svg xmlns="http://www.w3.org/2000/svg" width="69.652" height="69.645" viewBox="0 0 69.652 69.645"><g transform="translate(-27912.316 -2288.292)"><path d="M87.526,61.025A26.525,26.525,0,1,0,114.051,87.55,26.555,26.555,0,0,0,87.526,61.025Zm0,4.081A22.481,22.481,0,0,1,109.6,83.469c-1.281-.2-8.862,1.208-14.631-4.939a10.2,10.2,0,0,0-14.882,0A16.041,16.041,0,0,1,68.39,83.469H65.454A22.481,22.481,0,0,1,87.526,65.106ZM66.713,95.95a12.275,12.275,0,0,1,14.642,13.182A22.548,22.548,0,0,1,66.713,95.95ZM85.376,109.89A16.356,16.356,0,0,0,65.531,92.035a22.472,22.472,0,0,1-.451-4.485c1.352-.215,10.8,1.421,17.98-6.228a6.117,6.117,0,0,1,8.93,0c7.185,7.656,16.6,6.007,17.98,6.227a22.471,22.471,0,0,1-.451,4.485A16.357,16.357,0,0,0,89.675,109.89,22.4,22.4,0,0,1,85.376,109.89Zm8.319-.759a12.276,12.276,0,0,1,14.643-13.182A22.548,22.548,0,0,1,93.7,109.131Z" transform="translate(27859.613 2235.564)"/><path d="M223.243,232.146a6.121,6.121,0,1,0-6.121,6.121A6.128,6.128,0,0,0,223.243,232.146Zm-6.121,2.04a2.04,2.04,0,1,1,2.04-2.04A2.043,2.043,0,0,1,217.121,234.186Z" transform="translate(27730.023 2093.008)"/><path d="M59.419,10.252a34.806,34.806,0,1,0-24.6,59.417,34.822,34.822,0,0,0,24.6-59.417Zm-24.6,55.336A30.742,30.742,0,1,1,65.566,34.847,30.777,30.777,0,0,1,34.823,65.589Z" transform="translate(27912.316 2288.268)"/></g></svg>