<svg xmlns="http://www.w3.org/2000/svg" width="78.348" height="56.341" viewBox="0 0 78.348 56.341"><g transform="translate(0 -0.002)"><g transform="translate(0 0.002)"><path d="M672.094,363.794h-6.759a4.426,4.426,0,0,1-4.421-4.422v-1.427h-34.8v1.427a4.426,4.426,0,0,1-4.421,4.422h-6.758a4.427,4.427,0,0,1-4.422-4.422v-6.692a14.3,14.3,0,0,1-4.111-10.307,14.825,14.825,0,0,1,1.791-7.042,3.473,3.473,0,0,1-2.693-2.686l-1.085-5.259a3.46,3.46,0,0,1,3.386-4.158h6.281c2.291-5.753,4.6-9.341,7.047-10.953,4.591-3.02,12.959-4.822,22.388-4.822s17.8,1.8,22.387,4.822c2.43,1.6,4.8,5.283,7.048,10.953h6.279a3.452,3.452,0,0,1,2.677,1.271l0,.005a3.464,3.464,0,0,1,.708,2.865l0,.013-1.087,5.257a3.46,3.46,0,0,1-2.771,2.7,14.759,14.759,0,0,1,1.87,7.3,14.362,14.362,0,0,1-4.114,10.164v6.562A4.427,4.427,0,0,1,672.094,363.794Zm-49.041-8.909h40.921v4.487a1.363,1.363,0,0,0,1.361,1.361h6.759a1.363,1.363,0,0,0,1.361-1.361v-7.887l.5-.455a11.3,11.3,0,0,0,3.617-8.4,11.463,11.463,0,0,0-2.877-7.742l-2.3-2.553h5.749a.389.389,0,0,0,.387-.311l1.087-5.255a.413.413,0,0,0-.081-.336.408.408,0,0,0-.308-.148h-8.383l-.375-.988c-2.653-7-4.864-9.556-6.252-10.47-4.048-2.663-11.982-4.318-20.7-4.318s-16.657,1.655-20.705,4.318c-1.375.906-3.577,3.459-6.254,10.473l-.376.984H607.8a.4.4,0,0,0-.39.474l1.087,5.264a.4.4,0,0,0,.389.316h5.522l-2.2,2.532a11.521,11.521,0,0,0-2.751,7.511,11.234,11.234,0,0,0,3.488,8.395c.036.027.083.066.135.114l.489.454v8.025a1.363,1.363,0,0,0,1.361,1.361h6.758a1.363,1.363,0,0,0,1.361-1.361Zm-.868-4.564A7.218,7.218,0,1,1,629.4,343.1,7.227,7.227,0,0,1,622.186,350.322Zm0-11.375a4.157,4.157,0,1,0,4.158,4.156A4.162,4.162,0,0,0,622.186,338.947Zm42.732,11.375a7.217,7.217,0,1,1,7.218-7.219A7.227,7.227,0,0,1,664.918,350.322Zm0-11.375a4.157,4.157,0,1,0,4.158,4.156A4.162,4.162,0,0,0,664.918,338.947Zm4.114-9.634H618l.743-2.051c2.051-5.66,3.922-9.077,5.563-10.158h0c7.9-5.2,30.521-5.2,38.418,0,1.636,1.073,3.509,4.491,5.566,10.157Zm-46.639-3.06h42.241c-2.194-5.543-3.445-6.494-3.594-6.591-3.18-2.094-9.895-3.394-17.527-3.394s-14.349,1.3-17.528,3.393C625.335,320.088,624.048,322.076,622.393,326.253Z" transform="translate(-604.34 -307.453)"/></g></g></svg>