<svg xmlns="http://www.w3.org/2000/svg" width="78.352" height="55.451" viewBox="0 0 78.352 55.451"><defs><style>.a{fill:#2633ec;}</style></defs><g transform="translate(0 0)"><path class="a" d="M77.9,22.865a2.015,2.015,0,0,0-1.555-.74H68.721C66.84,17.162,64.388,12.3,61.6,10.463c-9.64-6.341-35.208-6.341-44.848,0-2.789,1.838-5.23,6.707-7.122,11.662H2.006A2.008,2.008,0,0,0,.042,24.538l1.129,5.473a2.005,2.005,0,0,0,1.964,1.6H5.395a13.546,13.546,0,0,0-3.252,8.853,13.262,13.262,0,0,0,4.191,9.958c.03.026.06.044.088.07v7.657a3.012,3.012,0,0,0,3.009,3.009h7.034a3.012,3.012,0,0,0,3.009-3.009V55.072h39.4v3.077a3.012,3.012,0,0,0,3.009,3.009H68.92a3.014,3.014,0,0,0,3.009-3.009V50.642a13.764,13.764,0,0,0,.879-19.036h2.409a2,2,0,0,0,1.964-1.6l1.131-5.471A2.022,2.022,0,0,0,77.9,22.865ZM20.058,15.489c7.684-5.057,30.552-5.057,38.232,0,1.493.979,3.412,4.937,5.172,9.784H14.89C16.645,20.428,18.565,16.472,20.058,15.489Zm-9,25.729a5.92,5.92,0,1,1,5.92,5.92A5.919,5.919,0,0,1,11.058,41.218Zm50.393,5.92a5.919,5.919,0,1,1,5.92-5.92A5.921,5.921,0,0,1,61.451,47.138Z" transform="translate(0 -5.707)"/></g></svg>