<svg xmlns="http://www.w3.org/2000/svg" width="48" height="48" viewBox="0 0 48 48"><defs><style>.a{fill:#78f1d0;}.b{fill:#fff;}</style></defs><rect class="a" width="48" height="48" rx="14"/><g transform="translate(7.365 9)"><g transform="translate(7.441 6.035)"><path class="b" d="M108.015,100.766a9.414,9.414,0,0,0-4.469,17.706v3.14a.979.979,0,0,0,.979.979h6.982a.978.978,0,0,0,.979-.979V118.5a9.429,9.429,0,0,0-4.469-17.731ZM111.1,117a.979.979,0,0,0-.569.889v2.74H105.5v-2.773a.979.979,0,0,0-.581-.894,7.46,7.46,0,1,1,10.564-6.772A7.534,7.534,0,0,1,111.1,117Z" transform="translate(-98.587 -100.766)"/></g><g transform="translate(13.052 28.709)"><path class="b" d="M198.928,479.319h-5.677a.979.979,0,1,0,0,1.957h5.677a.979.979,0,1,0,0-1.957Z" transform="translate(-192.273 -479.319)"/></g><g transform="translate(15.891)"><rect class="b" width="1.957" height="4.078"/></g><g transform="translate(1.634 14.257)"><g transform="translate(0)"><rect class="b" width="4.078" height="1.957"/></g></g><g transform="translate(28.027 14.257)"><rect class="b" width="4.078" height="1.957"/></g><g transform="translate(5.415 3.774)"><g transform="translate(0 0)"><rect class="b" width="1.957" height="4.083" transform="matrix(0.703, -0.711, 0.711, 0.703, 0, 1.392)"/></g></g><g transform="translate(24.044 3.774)"><g transform="translate(0 0)"><rect class="b" width="4.083" height="1.957" transform="matrix(0.711, -0.703, 0.703, 0.711, 0, 2.871)"/></g></g></g></svg>