<svg xmlns="http://www.w3.org/2000/svg" width="48" height="48" viewBox="0 0 48 48"><defs><style>.a{fill:#d5f0fe;}.b{fill:#fff;}</style></defs><rect class="a" width="48" height="48" rx="14"/><g transform="translate(8 5.004)"><g transform="translate(0 7.996)"><path class="b" d="M19.457,19.371a11.184,11.184,0,0,0-9.533,5.3,1.716,1.716,0,1,0,2.912,1.818,7.791,7.791,0,0,1,13.243,0,1.716,1.716,0,1,0,2.911-1.818A11.181,11.181,0,0,0,19.457,19.371Z" transform="translate(-3.029 -11.561)"/><path class="b" d="M32.6,16.972a19.048,19.048,0,0,0-32.335,0A1.716,1.716,0,0,0,3.173,18.79a15.615,15.615,0,0,1,26.511,0A1.716,1.716,0,0,0,32.6,16.972Z" transform="translate(0 -7.996)"/><circle class="b" cx="2.825" cy="2.825" r="2.825" transform="translate(13.604 16.227)"/></g></g></svg>