<svg xmlns="http://www.w3.org/2000/svg" width="48" height="48" viewBox="0 0 48 48"><defs><style>.a{fill:#ffc4c4;}.b{fill:#fff;}</style></defs><rect class="a" width="48" height="48" rx="14"/><g transform="translate(10 10)"><path class="b" d="M14.416,28.832A14.416,14.416,0,1,1,28.832,14.416,14.432,14.432,0,0,1,14.416,28.832Zm0-26.429A12.013,12.013,0,1,0,26.429,14.416,12.027,12.027,0,0,0,14.416,2.4Z"/><g transform="translate(3.873 3.873)"><path class="b" d="M4.425,24.31a1.2,1.2,0,0,1-.849-2.051L22.259,3.576a1.2,1.2,0,1,1,1.7,1.7L5.275,23.958A1.2,1.2,0,0,1,4.425,24.31Z" transform="translate(-3.224 -3.224)"/></g><g transform="translate(11.922 16.404)"><path class="b" d="M13.828,13.655l-3.9,3.9a2.868,2.868,0,1,0,3.9-3.9Z" transform="translate(-9.924 -13.655)"/></g><g transform="translate(7.299 11.559)"><path class="b" d="M8.128,14.111c.126-.126.259-.243.393-.358l4.131-4.131a9.481,9.481,0,0,0-6.227,2.794,1.2,1.2,0,1,0,1.7,1.7Z" transform="translate(-6.076 -9.622)"/></g><g transform="translate(17.558 12.906)"><path class="b" d="M16.382,10.743,14.615,12.51a7.22,7.22,0,0,1,1.923,1.376,1.2,1.2,0,0,0,1.7-1.7,9.642,9.642,0,0,0-1.86-1.446Z" transform="translate(-14.615 -10.743)"/></g><g transform="translate(20.837 9.676)"><path class="b" d="M19.063,8.054,17.345,9.772a11.785,11.785,0,0,1,1.8,1.482,1.2,1.2,0,0,0,1.7-1.7,14.212,14.212,0,0,0-1.788-1.5Z" transform="translate(-17.345 -8.054)"/></g><g transform="translate(4.138 7.048)"><path class="b" d="M5.5,11.695a11.422,11.422,0,0,1,9.69-3.322l2.046-2.046A13.9,13.9,0,0,0,3.795,10a1.2,1.2,0,0,0,1.7,1.7Z" transform="translate(-3.445 -5.867)"/></g></g></svg>