<svg xmlns="http://www.w3.org/2000/svg" width="48" height="48" viewBox="0 0 48 48"><defs><style>.a{fill:#e1e1e1;}.b{fill:#fff;}</style></defs><rect class="a" width="48" height="48" rx="14"/><g transform="translate(11 10)"><path class="b" d="M24.632,28.008H4.209A3.212,3.212,0,0,1,1,24.8V3.209A3.212,3.212,0,0,1,4.209,0H22.3a.876.876,0,0,1,.875.875V4.668h1.459a.876.876,0,0,1,.875.875v21.59A.876.876,0,0,1,24.632,28.008ZM2.751,6.067V24.8a1.461,1.461,0,0,0,1.459,1.459H23.757V6.419H4.209a3.178,3.178,0,0,1-1.459-.351ZM4.209,1.751a1.459,1.459,0,1,0,0,2.918H21.423V1.751Z" transform="translate(0)"/><path class="b" d="M13.461,21.38a.882.882,0,0,1-.46-.13L9.668,19.2,6.335,21.25A.876.876,0,0,1,5,20.5V4.75H6.751V18.939l2.458-1.512a.879.879,0,0,1,.918,0l2.458,1.512V4.75h1.752V20.5a.874.874,0,0,1-.875.875Z" transform="translate(0.668 0.793)"/></g></svg>